<svg width="661" height="451" viewBox="0 0 661 451" fill="none" xmlns="http://www.w3.org/2000/svg">
<g filter="url(#filter0_f_83_312)">
<path d="M381.249 249.5C381.249 299.205 282.206 342 232.5 342C182.794 342 180 229.206 180 179.5C180 129.794 220.543 120.5 270.249 120.5C319.954 120.5 381.249 199.794 381.249 249.5Z" fill="url(#paint0_linear_83_312)"/>
<path d="M381.249 249.5C381.249 299.205 282.206 342 232.5 342C182.794 342 180 229.206 180 179.5C180 129.794 220.543 120.5 270.249 120.5C319.954 120.5 381.249 199.794 381.249 249.5Z" fill="url(#paint1_linear_83_312)"/>
</g>
<g filter="url(#filter1_f_83_312)">
<path d="M381.249 249.5C381.249 299.206 282.206 342.001 232.5 342.001C182.794 342.001 180 229.206 180 179.501C180 129.795 220.543 120.5 270.249 120.5C319.954 120.5 381.249 199.794 381.249 249.5Z" fill="url(#paint2_linear_83_312)"/>
<path d="M381.249 249.5C381.249 299.206 282.206 342.001 232.5 342.001C182.794 342.001 180 229.206 180 179.501C180 129.795 220.543 120.5 270.249 120.5C319.954 120.5 381.249 199.794 381.249 249.5Z" fill="url(#paint3_linear_83_312)"/>
</g>
<g filter="url(#filter2_f_83_312)">
<path d="M506.5 221.5C506.5 265.683 444.183 333.5 400 333.5C355.817 333.5 270.5 258.683 270.5 214.5C270.5 170.317 304.317 73 348.5 73C392.683 73 506.5 177.317 506.5 221.5Z" fill="url(#paint4_linear_83_312)"/>
</g>
<g filter="url(#filter3_f_83_312)">
<path d="M506.5 221.5C506.5 265.683 444.183 333.5 400 333.5C355.817 333.5 270.5 258.683 270.5 214.5C270.5 170.317 304.317 73 348.5 73C392.683 73 506.5 177.317 506.5 221.5Z" fill="url(#paint5_linear_83_312)"/>
</g>
<g style="mix-blend-mode:overlay">
<rect x="246" y="214" width="8" height="24" rx="4" fill="white"/>
<rect x="266" y="202" width="8" height="48" rx="4" fill="white"/>
<rect x="286" y="218" width="8" height="16" rx="4" fill="white"/>
<rect x="306" y="222" width="8" height="8" rx="4" fill="white"/>
<rect x="326" y="192" width="8" height="68" rx="4" fill="white"/>
<rect x="346" y="202" width="8" height="48" rx="4" fill="white"/>
<rect x="366" y="216" width="8" height="20" rx="4" fill="white"/>
<rect x="386" y="214" width="8" height="24" rx="4" fill="white"/>
<rect x="406" y="200" width="8" height="52" rx="4" fill="white"/>
</g>
<defs>
<filter id="filter0_f_83_312" x="145.73" y="86.2296" width="269.789" height="290.04" filterUnits="userSpaceOnUse" color-interpolation-filters="sRGB">
<feFlood flood-opacity="0" result="BackgroundImageFix"/>
<feBlend mode="normal" in="SourceGraphic" in2="BackgroundImageFix" result="shape"/>
<feGaussianBlur stdDeviation="17.135" result="effect1_foregroundBlur_83_312"/>
</filter>
<filter id="filter1_f_83_312" x="145.73" y="86.2301" width="269.789" height="290.04" filterUnits="userSpaceOnUse" color-interpolation-filters="sRGB">
<feFlood flood-opacity="0" result="BackgroundImageFix"/>
<feBlend mode="normal" in="SourceGraphic" in2="BackgroundImageFix" result="shape"/>
<feGaussianBlur stdDeviation="17.135" result="effect1_foregroundBlur_83_312"/>
</filter>
<filter id="filter2_f_83_312" x="236.23" y="38.7301" width="304.54" height="329.04" filterUnits="userSpaceOnUse" color-interpolation-filters="sRGB">
<feFlood flood-opacity="0" result="BackgroundImageFix"/>
<feBlend mode="normal" in="SourceGraphic" in2="BackgroundImageFix" result="shape"/>
<feGaussianBlur stdDeviation="17.135" result="effect1_foregroundBlur_83_312"/>
</filter>
<filter id="filter3_f_83_312" x="236.23" y="38.7301" width="304.54" height="329.04" filterUnits="userSpaceOnUse" color-interpolation-filters="sRGB">
<feFlood flood-opacity="0" result="BackgroundImageFix"/>
<feBlend mode="normal" in="SourceGraphic" in2="BackgroundImageFix" result="shape"/>
<feGaussianBlur stdDeviation="17.135" result="effect1_foregroundBlur_83_312"/>
</filter>
<linearGradient id="paint0_linear_83_312" x1="223.106" y1="155.903" x2="348.731" y2="323.499" gradientUnits="userSpaceOnUse">
<stop stop-color="#FF2E00"/>
<stop offset="1" stop-color="#1400FF" stop-opacity="0"/>
</linearGradient>
<linearGradient id="paint1_linear_83_312" x1="294.5" y1="143.5" x2="294.5" y2="323.5" gradientUnits="userSpaceOnUse">
<stop stop-color="#00FFA3" stop-opacity="0.29"/>
<stop offset="1" stop-color="#3300FF" stop-opacity="0"/>
</linearGradient>
<linearGradient id="paint2_linear_83_312" x1="223.106" y1="155.904" x2="348.731" y2="323.5" gradientUnits="userSpaceOnUse">
<stop stop-color="#FF2E00"/>
<stop offset="1" stop-color="#1400FF" stop-opacity="0"/>
</linearGradient>
<linearGradient id="paint3_linear_83_312" x1="294.5" y1="143.5" x2="294.5" y2="323.5" gradientUnits="userSpaceOnUse">
<stop stop-color="#00FFA3" stop-opacity="0.29"/>
<stop offset="1" stop-color="#3300FF" stop-opacity="0"/>
</linearGradient>
<linearGradient id="paint4_linear_83_312" x1="350.5" y1="134.5" x2="350.5" y2="294.5" gradientUnits="userSpaceOnUse">
<stop stop-color="#00FFA3" stop-opacity="0.29"/>
<stop offset="1" stop-color="#3300FF" stop-opacity="0"/>
</linearGradient>
<linearGradient id="paint5_linear_83_312" x1="350.5" y1="134.5" x2="350.5" y2="294.5" gradientUnits="userSpaceOnUse">
<stop stop-color="#00FFA3" stop-opacity="0.29"/>
<stop offset="1" stop-color="#3300FF" stop-opacity="0"/>
</linearGradient>
</defs>
</svg>
