<svg width="661" height="451" viewBox="0 0 661 451" fill="none" xmlns="http://www.w3.org/2000/svg">
<g filter="url(#filter0_f_83_260)">
<path d="M381 216.468C381 273.63 334.661 319.968 277.5 319.968C220.339 319.968 140 228.13 140 170.969C140 113.807 220.339 122.468 277.5 122.468C334.661 122.468 381 159.307 381 216.468Z" fill="url(#paint0_linear_83_260)"/>
<path d="M381 216.468C381 273.63 334.661 319.968 277.5 319.968C220.339 319.968 140 228.13 140 170.969C140 113.807 220.339 122.468 277.5 122.468C334.661 122.468 381 159.307 381 216.468Z" fill="url(#paint1_linear_83_260)"/>
</g>
<g filter="url(#filter1_f_83_260)">
<path d="M451.5 204.969C451.5 260.75 311.281 380.469 255.5 380.469C199.72 380.469 278.5 243.25 278.5 187.469C278.5 131.688 324.22 130.469 380 130.469C435.781 130.469 451.5 149.188 451.5 204.969Z" fill="url(#paint2_linear_83_260)"/>
</g>
<g style="mix-blend-mode:overlay">
<rect x="246" y="202" width="8" height="48" rx="4" fill="white"/>
<rect x="266" y="214" width="8" height="24" rx="4" fill="white"/>
<rect x="286" y="206" width="8" height="40" rx="4" fill="white"/>
<rect x="306" y="210" width="8" height="32" rx="4" fill="white"/>
<rect x="326" y="190" width="8" height="72" rx="4" fill="white"/>
<rect x="346" y="194" width="8" height="64" rx="4" fill="white"/>
<rect x="366" y="212" width="8" height="28" rx="4" fill="white"/>
<rect x="386" y="202" width="8" height="48" rx="4" fill="white"/>
<rect x="406" y="214" width="8" height="24" rx="4" fill="white"/>
</g>
<defs>
<filter id="filter0_f_83_260" x="105.73" y="87.7301" width="309.54" height="266.508" filterUnits="userSpaceOnUse" color-interpolation-filters="sRGB">
<feFlood flood-opacity="0" result="BackgroundImageFix"/>
<feBlend mode="normal" in="SourceGraphic" in2="BackgroundImageFix" result="shape"/>
<feGaussianBlur stdDeviation="17.135" result="effect1_foregroundBlur_83_260"/>
</filter>
<filter id="filter1_f_83_260" x="201.26" y="96.1988" width="284.51" height="318.54" filterUnits="userSpaceOnUse" color-interpolation-filters="sRGB">
<feFlood flood-opacity="0" result="BackgroundImageFix"/>
<feBlend mode="normal" in="SourceGraphic" in2="BackgroundImageFix" result="shape"/>
<feGaussianBlur stdDeviation="17.135" result="effect1_foregroundBlur_83_260"/>
</filter>
<linearGradient id="paint0_linear_83_260" x1="195.397" y1="127.233" x2="339.865" y2="319.969" gradientUnits="userSpaceOnUse">
<stop stop-color="#FF2E00"/>
<stop offset="1" stop-color="#BFB9FF"/>
</linearGradient>
<linearGradient id="paint1_linear_83_260" x1="277.5" y1="112.969" x2="277.5" y2="319.969" gradientUnits="userSpaceOnUse">
<stop stop-color="#33C5B3" stop-opacity="0.64"/>
<stop offset="1" stop-color="#44FFC7" stop-opacity="0.6"/>
</linearGradient>
<linearGradient id="paint2_linear_83_260" x1="380" y1="121.969" x2="380" y2="323.969" gradientUnits="userSpaceOnUse">
<stop stop-color="#4200FF" stop-opacity="0.9"/>
<stop offset="1" stop-color="white" stop-opacity="0"/>
</linearGradient>
</defs>
</svg>
